<svg xmlns="http://www.w3.org/2000/svg" xmlns:xlink="http://www.w3.org/1999/xlink" width="40" height="40" viewBox="0 0 40 40">
  <defs>
    <clipPath id="clip-path">
      <rect id="Rectangle_1121" data-name="Rectangle 1121" width="40" height="40" transform="translate(217 1749)" fill="#fff"/>
    </clipPath>
  </defs>
  <g id="Mask_Group_94" data-name="Mask Group 94" transform="translate(-217 -1749)" clip-path="url(#clip-path)">
    <g id="download" transform="translate(217 1752.169)">
      <g id="Group_3086" data-name="Group 3086">
        <path id="Path_265" data-name="Path 265" d="M24.138,8.313a7.268,7.268,0,0,1,3.383,5.4,5.864,5.864,0,1,0-3.383-5.4ZM20.3,20.324a5.866,5.866,0,1,0-5.867-5.866A5.866,5.866,0,0,0,20.3,20.324Zm2.488.4H17.806a7.52,7.52,0,0,0-7.511,7.512v6.088l.015.1.419.131A34.191,34.191,0,0,0,20.942,36.2a20.967,20.967,0,0,0,8.918-1.674l.392-.2h.042V28.236A7.518,7.518,0,0,0,22.783,20.724Zm9.706-6.056H27.55A7.23,7.23,0,0,1,25.318,19.7a8.925,8.925,0,0,1,6.375,8.541v1.876a20.213,20.213,0,0,0,7.873-1.654l.392-.2H40v-6.09A7.52,7.52,0,0,0,32.489,14.668ZM10,14.269a5.827,5.827,0,0,0,3.12-.906,7.26,7.26,0,0,1,2.729-4.63c.006-.11.016-.219.016-.329A5.866,5.866,0,1,0,10,14.269ZM15.27,19.7A7.234,7.234,0,0,1,13.04,14.7c-.183-.013-.364-.028-.551-.028H7.511A7.52,7.52,0,0,0,0,22.179v6.089l.015.094.419.132a35.217,35.217,0,0,0,8.459,1.59V28.245A8.927,8.927,0,0,1,15.27,19.7Z" transform="translate(0 -2.535)" fill="#fff"/>
      </g>
    </g>
  </g>
</svg>
